<svg width="49" height="102" viewBox="0 0 49 102" fill="none" xmlns="http://www.w3.org/2000/svg">
<path d="M9.23258 8.68647C9.23258 7.34604 9.45079 6.30175 9.88721 5.5536C10.3236 4.79766 11.0874 4.41969 12.1784 4.41969C13.2617 4.41969 14.0215 4.79766 14.4579 5.5536C14.8943 6.30175 15.1125 7.34604 15.1125 8.68647C15.1125 10.0503 14.8943 11.1101 14.4579 11.8661C14.0215 12.622 13.2617 13 12.1784 13C11.0874 13 10.3236 12.622 9.88721 11.8661C9.45079 11.1101 9.23258 10.0503 9.23258 8.68647ZM14.0605 8.68647C14.0605 8.00846 14.0137 7.43566 13.9202 6.96807C13.8345 6.49268 13.6513 6.11081 13.3708 5.82247C13.098 5.53412 12.7006 5.38994 12.1784 5.38994C11.6485 5.38994 11.2432 5.53412 10.9627 5.82247C10.6899 6.11081 10.5068 6.49268 10.4132 6.96807C10.3275 7.43566 10.2847 8.00846 10.2847 8.68647C10.2847 9.38785 10.3275 9.97624 10.4132 10.4516C10.5068 10.927 10.6899 11.3089 10.9627 11.5972C11.2432 11.8856 11.6485 12.0297 12.1784 12.0297C12.7006 12.0297 13.098 11.8856 13.3708 11.5972C13.6513 11.3089 13.8345 10.927 13.9202 10.4516C14.0137 9.97624 14.0605 9.38785 14.0605 8.68647ZM16.5496 6.67582C16.6041 5.95885 16.8808 5.39774 17.3795 4.99249C17.8783 4.58724 18.5251 4.38462 19.3201 4.38462C19.85 4.38462 20.3059 4.48204 20.6878 4.67687C21.0774 4.8639 21.3697 5.12108 21.5645 5.44839C21.7671 5.77571 21.8684 6.14588 21.8684 6.55892C21.8684 7.0421 21.7281 7.45904 21.4476 7.80973C21.1748 8.16042 20.8163 8.38643 20.3721 8.48774V8.54619C20.8787 8.67088 21.28 8.91636 21.5762 9.28265C21.8723 9.64893 22.0204 10.1282 22.0204 10.7205C22.0204 11.1647 21.9191 11.5661 21.7165 11.9245C21.5138 12.2752 21.2099 12.5519 20.8047 12.7545C20.3994 12.9571 19.9123 13.0584 19.3434 13.0584C18.5174 13.0584 17.8393 12.8441 17.3094 12.4155C16.7795 11.9791 16.4833 11.3634 16.421 10.5685H17.4497C17.5042 11.0361 17.6952 11.418 18.0225 11.7141C18.3498 12.0103 18.7862 12.1583 19.3317 12.1583C19.8773 12.1583 20.2903 12.0181 20.5709 11.7375C20.8592 11.4492 21.0034 11.079 21.0034 10.627C21.0034 10.0425 20.8086 9.62165 20.4189 9.36447C20.0292 9.1073 19.4408 8.97871 18.6537 8.97871H18.3849V8.09029H18.6654C19.3824 8.08249 19.924 7.96559 20.2903 7.73959C20.6566 7.5058 20.8397 7.14731 20.8397 6.66413C20.8397 6.25109 20.7033 5.91988 20.4306 5.6705C20.1656 5.42112 19.7837 5.29642 19.285 5.29642C18.8018 5.29642 18.4121 5.42112 18.116 5.6705C17.8199 5.91988 17.6445 6.25499 17.59 6.67582H16.5496ZM23.971 13.0701C23.7684 13.0701 23.597 13 23.4567 12.8597C23.3164 12.7194 23.2463 12.548 23.2463 12.3454C23.2463 12.1427 23.3164 11.9713 23.4567 11.831C23.597 11.6907 23.7684 11.6206 23.971 11.6206C24.1659 11.6206 24.3295 11.6907 24.462 11.831C24.6023 11.9713 24.6724 12.1427 24.6724 12.3454C24.6724 12.548 24.6023 12.7194 24.462 12.8597C24.3295 13 24.1659 13.0701 23.971 13.0701ZM23.971 8.06691C23.7684 8.06691 23.597 7.99677 23.4567 7.85649C23.3164 7.71621 23.2463 7.54476 23.2463 7.34214C23.2463 7.13952 23.3164 6.96807 23.4567 6.82779C23.597 6.68751 23.7684 6.61737 23.971 6.61737C24.1659 6.61737 24.3295 6.68751 24.462 6.82779C24.6023 6.96807 24.6724 7.13952 24.6724 7.34214C24.6724 7.54476 24.6023 7.71621 24.462 7.85649C24.3295 7.99677 24.1659 8.06691 23.971 8.06691ZM25.9453 8.68647C25.9453 7.34604 26.1635 6.30175 26.6 5.5536C27.0364 4.79766 27.8001 4.41969 28.8912 4.41969C29.9744 4.41969 30.7343 4.79766 31.1707 5.5536C31.6071 6.30175 31.8253 7.34604 31.8253 8.68647C31.8253 10.0503 31.6071 11.1101 31.1707 11.8661C30.7343 12.622 29.9744 13 28.8912 13C27.8001 13 27.0364 12.622 26.6 11.8661C26.1635 11.1101 25.9453 10.0503 25.9453 8.68647ZM30.7732 8.68647C30.7732 8.00846 30.7265 7.43566 30.6329 6.96807C30.5472 6.49268 30.3641 6.11081 30.0835 5.82247C29.8108 5.53412 29.4133 5.38994 28.8912 5.38994C28.3612 5.38994 27.956 5.53412 27.6754 5.82247C27.4027 6.11081 27.2195 6.49268 27.126 6.96807C27.0403 7.43566 26.9974 8.00846 26.9974 8.68647C26.9974 9.38785 27.0403 9.97624 27.126 10.4516C27.2195 10.927 27.4027 11.3089 27.6754 11.5972C27.956 11.8856 28.3612 12.0297 28.8912 12.0297C29.4133 12.0297 29.8108 11.8856 30.0835 11.5972C30.3641 11.3089 30.5472 10.927 30.6329 10.4516C30.7265 9.97624 30.7732 9.38785 30.7732 8.68647ZM33.2857 8.68647C33.2857 7.34604 33.5039 6.30175 33.9403 5.5536C34.3768 4.79766 35.1405 4.41969 36.2315 4.41969C37.3148 4.41969 38.0746 4.79766 38.511 5.5536C38.9475 6.30175 39.1657 7.34604 39.1657 8.68647C39.1657 10.0503 38.9475 11.1101 38.511 11.8661C38.0746 12.622 37.3148 13 36.2315 13C35.1405 13 34.3768 12.622 33.9403 11.8661C33.5039 11.1101 33.2857 10.0503 33.2857 8.68647ZM38.1136 8.68647C38.1136 8.00846 38.0668 7.43566 37.9733 6.96807C37.8876 6.49268 37.7044 6.11081 37.4239 5.82247C37.1511 5.53412 36.7537 5.38994 36.2315 5.38994C35.7016 5.38994 35.2963 5.53412 35.0158 5.82247C34.743 6.11081 34.5599 6.49268 34.4664 6.96807C34.3806 7.43566 34.3378 8.00846 34.3378 8.68647C34.3378 9.38785 34.3806 9.97624 34.4664 10.4516C34.5599 10.927 34.743 11.3089 35.0158 11.5972C35.2963 11.8856 35.7016 12.0297 36.2315 12.0297C36.7537 12.0297 37.1511 11.8856 37.4239 11.5972C37.7044 11.3089 37.8876 10.927 37.9733 10.4516C38.0668 9.97624 38.1136 9.38785 38.1136 8.68647Z" fill="black"/>
<circle cx="24.507" cy="50.9641" r="23.9641" fill="#1C6DD0" fill-opacity="0.2"/>
<path d="M21.412 56.2542C21.149 56.9556 21.3682 57.7008 21.8942 57.92C22.4202 58.0954 23.0778 57.7008 23.3408 56.9556C23.6477 56.1227 23.6477 54.9391 23.4723 53.624C22.4641 54.5008 21.7189 55.3775 21.412 56.2542ZM27.3738 56.9556C27.6807 56.1227 27.6807 54.9391 27.5053 53.624C26.4971 54.5008 25.7518 55.4213 25.445 56.2542C25.182 56.9556 25.4011 57.7008 25.9272 57.92C26.4532 58.0954 27.1108 57.657 27.3738 56.9556ZM31.4944 53.624C30.4862 54.5008 29.741 55.4213 29.4341 56.2542C29.1711 56.9556 29.3903 57.7008 29.9163 57.92C30.4424 58.0954 31.0999 57.7008 31.3629 56.9556C31.7136 56.1227 31.7136 54.9391 31.4944 53.624ZM17.379 56.2542C17.116 56.9556 17.3352 57.7008 17.8612 57.92C18.3873 58.0954 19.0448 57.7008 19.3078 56.9556C19.6147 56.1227 19.6147 54.9391 19.4393 53.624C18.4311 54.5008 17.6859 55.3775 17.379 56.2542ZM18.2558 61.8215C17.9927 62.5229 18.2119 63.2681 18.738 63.4873C19.264 63.6626 19.9216 63.2681 20.1846 62.5229C20.4914 61.69 20.4914 60.5064 20.3161 59.1913C19.3078 60.068 18.5626 60.9886 18.2558 61.8215ZM24.2176 62.5229C24.5244 61.69 24.5244 60.5064 24.3491 59.1913C23.3408 60.068 22.5956 60.9886 22.2887 61.8215C22.0257 62.5229 22.2449 63.2681 22.7709 63.4873C23.297 63.6626 23.9545 63.2681 24.2176 62.5229ZM28.3382 59.1913C27.33 60.068 26.5847 60.9886 26.2779 61.8215C26.0149 62.5229 26.234 63.2681 26.7601 63.4873C27.2861 63.6626 27.9437 63.2681 28.2067 62.5229C28.5574 61.69 28.5574 60.5502 28.3382 59.1913ZM14.2228 61.8215C13.9598 62.5229 14.1789 63.2681 14.705 63.4873C15.231 63.6626 15.8886 63.2681 16.1516 62.5229C16.4585 61.69 16.4585 60.5064 16.2831 59.1913C15.2749 60.068 14.5296 60.9886 14.2228 61.8215Z" fill="#75D6FF"/>
<path d="M19.3479 51.1245C18.9972 51.1245 18.6026 51.0807 18.2519 50.9492C16.8053 50.467 15.8848 49.1519 15.8848 47.6614C15.8848 46.6532 16.3231 45.6888 17.0684 45.0312C17.2437 44.8559 17.4629 44.7244 17.7259 44.5929L17.9451 43.8038C18.515 41.7873 20.3999 40.3845 22.4603 40.3845C22.6795 40.3845 22.8986 40.3845 23.1178 40.4284C23.2932 40.4722 23.5124 40.5161 23.6877 40.5599L23.7754 40.3845C24.6083 38.8503 26.2302 37.9297 27.9399 37.9297C30.5701 37.9297 32.7181 40.0777 32.7181 42.7079V43.1901C32.9373 43.2778 33.1126 43.3654 33.3318 43.4531C34.603 44.1983 35.3921 45.5573 35.3921 47.0039C35.3921 48.9327 34.077 50.5985 32.192 50.993C31.8852 51.0807 31.5783 51.0807 31.2715 51.0807L19.3479 51.1245Z" fill="white"/>
<path d="M27.9399 38.6313C30.1755 38.6313 32.0167 40.4724 32.0167 42.7081V43.015C31.0523 43.1026 30.2194 43.4533 29.5618 44.067C30.044 43.7602 30.6577 43.6287 31.2715 43.6287C31.4906 43.6287 31.7098 43.6725 31.929 43.6725C32.2797 43.7602 32.6304 43.8917 32.9811 44.067C33.9893 44.6369 34.6907 45.7767 34.6907 47.0479C34.6907 48.6699 33.551 50.0288 32.0167 50.3795C31.7537 50.4234 31.5345 50.4672 31.2276 50.4672H19.3479C19.041 50.4672 18.7342 50.4234 18.4711 50.3357C17.3752 49.985 16.5423 48.9329 16.5423 47.7055C16.5423 46.8726 16.893 46.1274 17.5067 45.6013C17.7697 45.3821 18.0766 45.2068 18.4273 45.0753C18.7342 44.9876 19.041 44.8999 19.3479 44.8999C20.2246 44.8999 21.0575 45.3383 21.5397 45.9959H21.5835C21.0137 44.8999 19.8739 44.1547 18.6026 44.0232C19.0848 42.3574 20.6191 41.13 22.4603 41.13C22.6356 41.13 22.8548 41.13 23.0301 41.1738C23.3808 41.2177 23.7754 41.3492 24.0822 41.4807C25.3097 42.0506 26.2302 43.1903 26.4056 44.5492V44.5054C26.4056 42.9273 25.6165 41.5245 24.3891 40.7355C25.0466 39.4642 26.4056 38.6313 27.9399 38.6313ZM27.9399 37.2285C26.0549 37.2285 24.3014 38.1929 23.337 39.771H23.2055C22.8986 39.7272 22.6795 39.7272 22.4164 39.7272C20.0054 39.7272 17.9013 41.3492 17.1999 43.6287L17.0245 44.1986C16.8492 44.2862 16.6738 44.4177 16.5423 44.5492C15.6217 45.3383 15.0957 46.4781 15.0957 47.7055C15.0957 49.5028 16.2355 51.0809 17.9451 51.6508C18.3835 51.7823 18.8218 51.87 19.2602 51.87H31.2276C31.5783 51.87 31.9728 51.8261 32.3235 51.7385C34.5154 51.2563 36.0497 49.3275 36.0497 47.0479C36.0497 45.3383 35.1291 43.7602 33.6386 42.8835C33.551 42.8396 33.5071 42.7958 33.4195 42.7519V42.7081C33.4195 39.6834 30.9646 37.2285 27.9399 37.2285Z" fill="#F5F5F5"/>
<path d="M15.7524 96.0744C16.7422 95.2795 17.5176 94.6287 18.0787 94.1222C18.6398 93.6078 19.1113 93.074 19.4932 92.5207C19.8828 91.9596 20.0777 91.4102 20.0777 90.8724C20.0777 90.3659 19.953 89.9684 19.7036 89.6801C19.462 89.3839 19.0684 89.2358 18.5229 89.2358C17.993 89.2358 17.5799 89.4034 17.2838 89.7385C16.9954 90.0658 16.8396 90.5061 16.8162 91.0595H15.7875C15.8187 90.1866 16.0836 89.5125 16.5824 89.0371C17.0812 88.5617 17.7241 88.324 18.5112 88.324C19.3139 88.324 19.9491 88.5462 20.4167 88.9904C20.892 89.4346 21.1297 90.0463 21.1297 90.8257C21.1297 91.4725 20.9349 92.1037 20.5452 92.7194C20.1634 93.3273 19.727 93.865 19.236 94.3326C18.745 94.7924 18.1177 95.3301 17.3539 95.9458H21.3752V96.8342H15.7524V96.0744ZM22.6049 92.6142C22.6049 91.2738 22.8231 90.2295 23.2596 89.4813C23.696 88.7254 24.4597 88.3474 25.5508 88.3474C26.634 88.3474 27.3939 88.7254 27.8303 89.4813C28.2667 90.2295 28.4849 91.2738 28.4849 92.6142C28.4849 93.978 28.2667 95.0379 27.8303 95.7938C27.3939 96.5498 26.634 96.9277 25.5508 96.9277C24.4597 96.9277 23.696 96.5498 23.2596 95.7938C22.8231 95.0379 22.6049 93.978 22.6049 92.6142ZM27.4328 92.6142C27.4328 91.9362 27.3861 91.3634 27.2925 90.8958C27.2068 90.4204 27.0237 90.0385 26.7431 89.7502C26.4704 89.4619 26.0729 89.3177 25.5508 89.3177C25.0208 89.3177 24.6156 89.4619 24.335 89.7502C24.0623 90.0385 23.8791 90.4204 23.7856 90.8958C23.6999 91.3634 23.657 91.9362 23.657 92.6142C23.657 93.3156 23.6999 93.904 23.7856 94.3794C23.8791 94.8547 24.0623 95.2366 24.335 95.525C24.6156 95.8133 25.0208 95.9575 25.5508 95.9575C26.0729 95.9575 26.4704 95.8133 26.7431 95.525C27.0237 95.2366 27.2068 94.8547 27.2925 94.3794C27.3861 93.904 27.4328 93.3156 27.4328 92.6142Z" fill="black"/>
<circle cx="31.5216" cy="89.7725" r="1.75347" stroke="black" stroke-width="1.16898"/>
</svg>
