<svg width="48" height="102" viewBox="0 0 48 102" fill="none" xmlns="http://www.w3.org/2000/svg">
<path d="M8.75992 8.68647C8.75992 7.34604 8.97813 6.30175 9.41455 5.5536C9.85097 4.79766 10.6147 4.41969 11.7058 4.41969C12.789 4.41969 13.5488 4.79766 13.9853 5.5536C14.4217 6.30175 14.6399 7.34604 14.6399 8.68647C14.6399 10.0503 14.4217 11.1101 13.9853 11.8661C13.5488 12.622 12.789 13 11.7058 13C10.6147 13 9.85097 12.622 9.41455 11.8661C8.97813 11.1101 8.75992 10.0503 8.75992 8.68647ZM13.5878 8.68647C13.5878 8.00846 13.541 7.43566 13.4475 6.96807C13.3618 6.49268 13.1787 6.11081 12.8981 5.82247C12.6253 5.53412 12.2279 5.38994 11.7058 5.38994C11.1758 5.38994 10.7706 5.53412 10.49 5.82247C10.2173 6.11081 10.0341 6.49268 9.94059 6.96807C9.85487 7.43566 9.81201 8.00846 9.81201 8.68647C9.81201 9.38785 9.85487 9.97624 9.94059 10.4516C10.0341 10.927 10.2173 11.3089 10.49 11.5972C10.7706 11.8856 11.1758 12.0297 11.7058 12.0297C12.2279 12.0297 12.6253 11.8856 12.8981 11.5972C13.1787 11.3089 13.3618 10.927 13.4475 10.4516C13.541 9.97624 13.5878 9.38785 13.5878 8.68647ZM21.4893 5.47177H17.3862V8.13705C17.5654 7.88766 17.8304 7.68504 18.1811 7.52918C18.5318 7.36552 18.9097 7.28369 19.315 7.28369C19.9618 7.28369 20.4879 7.42007 20.8931 7.69283C21.2984 7.9578 21.5867 8.3046 21.7582 8.73322C21.9374 9.15406 22.027 9.60217 22.027 10.0776C22.027 10.6387 21.9218 11.1413 21.7114 11.5855C21.501 12.0297 21.1776 12.3804 20.7411 12.6376C20.3125 12.8948 19.7787 13.0234 19.1396 13.0234C18.3214 13.0234 17.6589 12.813 17.1524 12.3921C16.6458 11.9713 16.338 11.4102 16.2289 10.7088H17.2693C17.3706 11.153 17.5849 11.4998 17.9122 11.7492C18.2395 11.9986 18.6526 12.1233 19.1513 12.1233C19.767 12.1233 20.2307 11.9401 20.5424 11.5738C20.8541 11.1998 21.01 10.7088 21.01 10.1009C21.01 9.49306 20.8541 9.02547 20.5424 8.69816C20.2307 8.36305 19.7709 8.19549 19.163 8.19549C18.75 8.19549 18.3876 8.29681 18.0759 8.49943C17.7719 8.69426 17.5498 8.96312 17.4095 9.30602H16.4042V4.53659H21.4893V5.47177ZM23.955 13.0701C23.7524 13.0701 23.5809 13 23.4407 12.8597C23.3004 12.7194 23.2302 12.548 23.2302 12.3454C23.2302 12.1427 23.3004 11.9713 23.4407 11.831C23.5809 11.6907 23.7524 11.6206 23.955 11.6206C24.1498 11.6206 24.3135 11.6907 24.446 11.831C24.5863 11.9713 24.6564 12.1427 24.6564 12.3454C24.6564 12.548 24.5863 12.7194 24.446 12.8597C24.3135 13 24.1498 13.0701 23.955 13.0701ZM23.955 8.06691C23.7524 8.06691 23.5809 7.99677 23.4407 7.85649C23.3004 7.71621 23.2302 7.54476 23.2302 7.34214C23.2302 7.13952 23.3004 6.96807 23.4407 6.82779C23.5809 6.68751 23.7524 6.61737 23.955 6.61737C24.1498 6.61737 24.3135 6.68751 24.446 6.82779C24.5863 6.96807 24.6564 7.13952 24.6564 7.34214C24.6564 7.54476 24.5863 7.71621 24.446 7.85649C24.3135 7.99677 24.1498 8.06691 23.955 8.06691ZM25.9293 8.68647C25.9293 7.34604 26.1475 6.30175 26.5839 5.5536C27.0204 4.79766 27.7841 4.41969 28.8751 4.41969C29.9584 4.41969 30.7182 4.79766 31.1546 5.5536C31.5911 6.30175 31.8093 7.34604 31.8093 8.68647C31.8093 10.0503 31.5911 11.1101 31.1546 11.8661C30.7182 12.622 29.9584 13 28.8751 13C27.7841 13 27.0204 12.622 26.5839 11.8661C26.1475 11.1101 25.9293 10.0503 25.9293 8.68647ZM30.7572 8.68647C30.7572 8.00846 30.7104 7.43566 30.6169 6.96807C30.5312 6.49268 30.3481 6.11081 30.0675 5.82247C29.7947 5.53412 29.3973 5.38994 28.8751 5.38994C28.3452 5.38994 27.94 5.53412 27.6594 5.82247C27.3866 6.11081 27.2035 6.49268 27.11 6.96807C27.0243 7.43566 26.9814 8.00846 26.9814 8.68647C26.9814 9.38785 27.0243 9.97624 27.11 10.4516C27.2035 10.927 27.3866 11.3089 27.6594 11.5972C27.94 11.8856 28.3452 12.0297 28.8751 12.0297C29.3973 12.0297 29.7947 11.8856 30.0675 11.5972C30.3481 11.3089 30.5312 10.927 30.6169 10.4516C30.7104 9.97624 30.7572 9.38785 30.7572 8.68647ZM33.2697 8.68647C33.2697 7.34604 33.4879 6.30175 33.9243 5.5536C34.3607 4.79766 35.1245 4.41969 36.2155 4.41969C37.2988 4.41969 38.0586 4.79766 38.495 5.5536C38.9314 6.30175 39.1496 7.34604 39.1496 8.68647C39.1496 10.0503 38.9314 11.1101 38.495 11.8661C38.0586 12.622 37.2988 13 36.2155 13C35.1245 13 34.3607 12.622 33.9243 11.8661C33.4879 11.1101 33.2697 10.0503 33.2697 8.68647ZM38.0976 8.68647C38.0976 8.00846 38.0508 7.43566 37.9573 6.96807C37.8716 6.49268 37.6884 6.11081 37.4079 5.82247C37.1351 5.53412 36.7377 5.38994 36.2155 5.38994C35.6856 5.38994 35.2803 5.53412 34.9998 5.82247C34.727 6.11081 34.5439 6.49268 34.4503 6.96807C34.3646 7.43566 34.3218 8.00846 34.3218 8.68647C34.3218 9.38785 34.3646 9.97624 34.4503 10.4516C34.5439 10.927 34.727 11.3089 34.9998 11.5972C35.2803 11.8856 35.6856 12.0297 36.2155 12.0297C36.7377 12.0297 37.1351 11.8856 37.4079 11.5972C37.6884 11.3089 37.8716 10.927 37.9573 10.4516C38.0508 9.97624 38.0976 9.38785 38.0976 8.68647Z" fill="black"/>
<circle cx="24.0344" cy="50.9641" r="23.9641" fill="#1C6DD0" fill-opacity="0.2"/>
<path d="M19.1196 45.1409C16.9914 47.8763 17.0286 52.7356 19.7487 55.1444C22.837 57.8776 27.1834 57.8491 29.9166 55.3351C33.1934 52.3191 33.0049 47.2998 30.1073 44.457C27.1944 41.5988 21.9887 41.4498 19.1196 45.1409Z" fill="#FCC11A"/>
<path d="M26.0511 44.2029C25.2094 43.8302 24.2888 44.8451 23.8877 45.5377C23.4866 46.2325 23.114 47.5936 23.9688 47.9421C24.8236 48.2884 25.4373 47.701 26.0533 46.6862C26.6648 45.6714 27.0133 44.6303 26.0511 44.2029Z" fill="#FEE269"/>
<path d="M24.9853 40.3884C24.7815 40.7698 24.8494 41.0635 25.2549 41.16C25.6604 41.2564 28.1832 41.6663 28.3958 41.6794C28.7049 41.6992 28.8188 41.4668 28.7816 41.1972C28.7421 40.9276 28.1262 37.1511 28.0692 36.8048C28.0122 36.4585 27.6462 36.1122 27.2977 36.5746C26.9492 37.0371 25.1387 40.1013 24.9853 40.3884ZM31.517 43.0099C31.1203 43.1326 31.1312 43.3759 31.3438 43.685C31.5564 43.994 33.0206 46.2275 33.1543 46.3831C33.2902 46.5365 33.5203 46.576 33.7132 46.3437C33.9061 46.1135 36.3127 42.7381 36.4881 42.5277C36.7774 42.1814 36.6042 41.8153 36.1615 41.9293C35.8239 42.0192 31.7669 42.9332 31.517 43.0099ZM34.5417 49.5043C34.2568 49.3421 33.8864 49.3881 33.7899 49.7542C33.6935 50.1202 33.2705 52.7789 33.231 53.0112C33.1916 53.2436 33.3669 53.4737 33.654 53.4167C33.9412 53.3597 37.9171 52.7701 38.1824 52.7044C38.6448 52.5882 38.7983 52.1257 38.3183 51.7794C38.007 51.5537 34.8113 49.6577 34.5417 49.5043ZM31.3614 55.8036C31.6682 55.6392 31.94 55.7642 32.0167 56.1127C32.0934 56.459 32.9417 60.0054 33.0776 60.6607C33.1455 60.9895 32.7685 61.2591 32.4617 61.0662C32.1526 60.8733 28.8035 58.539 28.5887 58.3483C28.2796 58.0787 28.4944 57.7982 28.6457 57.6557C28.9525 57.3642 31.072 55.9592 31.3614 55.8036ZM22.0351 57.75C21.6471 57.7127 21.5332 58.059 21.5924 58.3659C21.6493 58.6749 22.228 62.583 22.2674 62.8745C22.3244 63.2975 22.7694 63.4729 23.0565 63.0476C23.3436 62.6224 25.3251 59.453 25.4851 59.1549C25.7744 58.6157 25.5618 58.4996 25.2724 58.3659C24.9853 58.2322 22.4406 57.7894 22.0351 57.75ZM16.4876 53.2611C16.7572 52.8183 17.1035 52.9345 17.3555 53.3575C17.5265 53.6469 18.9731 55.5932 19.109 55.8036C19.2449 56.0162 19.3019 56.4195 18.8789 56.516C18.4515 56.6146 15.0037 57.5198 14.4645 57.6163C13.9253 57.7127 13.6163 57.2897 13.9626 56.8272C14.1642 56.5554 16.3341 53.5132 16.4876 53.2611ZM15.7555 49.9076C16.2487 50.1268 16.481 50.0479 16.584 49.695C16.7199 49.2325 17.1232 47.113 17.1429 46.6308C17.1561 46.3174 17.0268 46.0149 16.5446 46.0916C16.0624 46.1683 12.5949 46.6527 12.1521 46.8061C11.637 46.9859 11.6743 47.5514 12.0162 47.7311C12.4217 47.9437 15.407 49.7542 15.7555 49.9076ZM21.748 41.8153C22.0263 41.5939 21.9409 41.2761 21.691 41.103C21.4411 40.9298 18.3462 38.692 17.9539 38.3851C17.6076 38.1155 17.1824 38.2119 17.2985 38.8278C17.3818 39.2706 18.3682 43.1458 18.4361 43.4132C18.5128 43.7222 18.7452 43.8756 19.0148 43.6828C19.28 43.4921 21.4587 42.0477 21.748 41.8153Z" fill="#FFA722"/>
<path d="M15.4084 92.6142C15.4084 91.2738 15.6266 90.2295 16.063 89.4813C16.4994 88.7254 17.2631 88.3474 18.3542 88.3474C19.4374 88.3474 20.1973 88.7254 20.6337 89.4813C21.0701 90.2295 21.2883 91.2738 21.2883 92.6142C21.2883 93.978 21.0701 95.0379 20.6337 95.7938C20.1973 96.5498 19.4374 96.9277 18.3542 96.9277C17.2631 96.9277 16.4994 96.5498 16.063 95.7938C15.6266 95.0379 15.4084 93.978 15.4084 92.6142ZM20.2362 92.6142C20.2362 91.9362 20.1895 91.3634 20.096 90.8958C20.0102 90.4204 19.8271 90.0385 19.5465 89.7502C19.2738 89.4619 18.8763 89.3177 18.3542 89.3177C17.8243 89.3177 17.419 89.4619 17.1385 89.7502C16.8657 90.0385 16.6825 90.4204 16.589 90.8958C16.5033 91.3634 16.4604 91.9362 16.4604 92.6142C16.4604 93.3156 16.5033 93.904 16.589 94.3794C16.6825 94.8547 16.8657 95.2366 17.1385 95.525C17.419 95.8133 17.8243 95.9575 18.3542 95.9575C18.8763 95.9575 19.2738 95.8133 19.5465 95.525C19.8271 95.2366 20.0102 94.8547 20.096 94.3794C20.1895 93.904 20.2362 93.3156 20.2362 92.6142ZM22.7254 90.6036C22.7799 89.8866 23.0566 89.3255 23.5553 88.9202C24.0541 88.515 24.7009 88.3124 25.4958 88.3124C26.0258 88.3124 26.4817 88.4098 26.8635 88.6046C27.2532 88.7916 27.5454 89.0488 27.7403 89.3761C27.9429 89.7034 28.0442 90.0736 28.0442 90.4867C28.0442 90.9698 27.9039 91.3868 27.6234 91.7375C27.3506 92.0882 26.9921 92.3142 26.5479 92.4155V92.4739C27.0545 92.5986 27.4558 92.8441 27.752 93.2104C28.0481 93.5767 28.1962 94.0559 28.1962 94.6482C28.1962 95.0924 28.0949 95.4938 27.8922 95.8523C27.6896 96.203 27.3857 96.4796 26.9804 96.6822C26.5752 96.8849 26.0881 96.9862 25.5192 96.9862C24.6931 96.9862 24.0151 96.7719 23.4852 96.3432C22.9552 95.9068 22.6591 95.2912 22.5968 94.4963H23.6255C23.68 94.9638 23.871 95.3457 24.1983 95.6419C24.5256 95.938 24.962 96.0861 25.5075 96.0861C26.053 96.0861 26.4661 95.9458 26.7466 95.6652C27.035 95.3769 27.1792 95.0067 27.1792 94.5547C27.1792 93.9702 26.9843 93.5494 26.5947 93.2922C26.205 93.035 25.6166 92.9064 24.8295 92.9064H24.5606V92.018H24.8412C25.5582 92.0102 26.0998 91.8933 26.4661 91.6673C26.8324 91.4335 27.0155 91.075 27.0155 90.5919C27.0155 90.1788 26.8791 89.8476 26.6064 89.5982C26.3414 89.3489 25.9595 89.2242 25.4608 89.2242C24.9776 89.2242 24.5879 89.3489 24.2918 89.5982C23.9956 89.8476 23.8203 90.1827 23.7657 90.6036H22.7254Z" fill="black"/>
<circle cx="31.0489" cy="87.4346" r="1.75347" stroke="black" stroke-width="1.16898"/>
</svg>
