<svg width="48" height="48" viewBox="0 0 48 48" fill="none" xmlns="http://www.w3.org/2000/svg">
<circle cx="23.9641" cy="23.9641" r="23.9641" fill="#1C6DD0" fill-opacity="0.2"/>
<path d="M20.869 29.2533C20.606 29.9546 20.8252 30.6999 21.3512 30.919C21.8773 31.0944 22.5348 30.6999 22.7978 29.9546C23.1047 29.1217 23.1047 27.9381 22.9294 26.623C21.9211 27.4998 21.1759 28.3765 20.869 29.2533ZM26.8308 29.9546C27.1377 29.1217 27.1377 27.9381 26.9623 26.623C25.9541 27.4998 25.2089 28.4204 24.902 29.2533C24.639 29.9546 24.8582 30.6999 25.3842 30.919C25.9103 31.0944 26.5678 30.656 26.8308 29.9546ZM30.9515 26.623C29.9432 27.4998 29.198 28.4204 28.8912 29.2533C28.6281 29.9546 28.8473 30.6999 29.3734 30.919C29.8994 31.0944 30.5569 30.6999 30.82 29.9546C31.1707 29.1217 31.1707 27.9381 30.9515 26.623ZM16.8361 29.2533C16.573 29.9546 16.7922 30.6999 17.3183 30.919C17.8443 31.0944 18.5018 30.6999 18.7649 29.9546C19.0717 29.1217 19.0717 27.9381 18.8964 26.623C17.8881 27.4998 17.1429 28.3765 16.8361 29.2533ZM17.7128 34.8205C17.4498 35.5219 17.669 36.2671 18.195 36.4863C18.721 36.6617 19.3786 36.2671 19.6416 35.5219C19.9485 34.689 19.9485 33.5054 19.7731 32.1903C18.7649 33.067 18.0196 33.9876 17.7128 34.8205ZM23.6746 35.5219C23.9814 34.689 23.9814 33.5054 23.8061 32.1903C22.7978 33.067 22.0526 33.9876 21.7458 34.8205C21.4827 35.5219 21.7019 36.2671 22.228 36.4863C22.754 36.6617 23.4116 36.2671 23.6746 35.5219ZM27.7952 32.1903C26.787 33.067 26.0418 33.9876 25.7349 34.8205C25.4719 35.5219 25.6911 36.2671 26.2171 36.4863C26.7432 36.6617 27.4007 36.2671 27.6637 35.5219C28.0144 34.689 28.0144 33.5492 27.7952 32.1903ZM13.6798 34.8205C13.4168 35.5219 13.636 36.2671 14.162 36.4863C14.6881 36.6617 15.3456 36.2671 15.6086 35.5219C15.9155 34.689 15.9155 33.5054 15.7401 32.1903C14.7319 33.067 13.9867 33.9876 13.6798 34.8205Z" fill="#75D6FF"/>
<path d="M18.8049 24.1245C18.4542 24.1245 18.0597 24.0807 17.709 23.9492C16.2624 23.467 15.3418 22.1519 15.3418 20.6614C15.3418 19.6532 15.7802 18.6888 16.5254 18.0312C16.7007 17.8559 16.9199 17.7244 17.1829 17.5929L17.4021 16.8038C17.972 14.7873 19.857 13.3845 21.9173 13.3845C22.1365 13.3845 22.3557 13.3845 22.5749 13.4284C22.7502 13.4722 22.9694 13.5161 23.1447 13.5599L23.2324 13.3845C24.0653 11.8503 25.6873 10.9297 27.3969 10.9297C30.0271 10.9297 32.1751 13.0777 32.1751 15.7079V16.1901C32.3943 16.2778 32.5696 16.3654 32.7888 16.4531C34.0601 17.1983 34.8491 18.5573 34.8491 20.0039C34.8491 21.9327 33.534 23.5985 31.6491 23.993C31.3422 24.0807 31.0353 24.0807 30.7285 24.0807L18.8049 24.1245Z" fill="white"/>
<path d="M27.3969 11.6313C29.6326 11.6313 31.4737 13.4724 31.4737 15.7081V16.015C30.5093 16.1026 29.6764 16.4533 29.0189 17.067C29.5011 16.7602 30.1148 16.6287 30.7285 16.6287C30.9477 16.6287 31.1669 16.6725 31.386 16.6725C31.7367 16.7602 32.0874 16.8917 32.4381 17.067C33.4464 17.6369 34.1478 18.7767 34.1478 20.0479C34.1478 21.6699 33.008 23.0288 31.4737 23.3795C31.2107 23.4234 30.9915 23.4672 30.6846 23.4672H18.8049C18.498 23.4672 18.1912 23.4234 17.9282 23.3357C16.8322 22.985 15.9993 21.9329 15.9993 20.7055C15.9993 19.8726 16.35 19.1274 16.9638 18.6013C17.2268 18.3821 17.5336 18.2068 17.8843 18.0753C18.1912 17.9876 18.498 17.8999 18.8049 17.8999C19.6816 17.8999 20.5145 18.3383 20.9967 18.9959H21.0406C20.4707 17.8999 19.3309 17.1547 18.0597 17.0232C18.5419 15.3574 20.0762 14.13 21.9173 14.13C22.0927 14.13 22.3118 14.13 22.4872 14.1738C22.8379 14.2177 23.2324 14.3492 23.5393 14.4807C24.7667 15.0506 25.6873 16.1903 25.8626 17.5492V17.5054C25.8626 15.9273 25.0735 14.5245 23.8461 13.7355C24.5037 12.4642 25.8626 11.6313 27.3969 11.6313ZM27.3969 10.2285C25.5119 10.2285 23.7584 11.1929 22.794 12.771H22.6625C22.3557 12.7272 22.1365 12.7272 21.8735 12.7272C19.4624 12.7272 17.3583 14.3492 16.6569 16.6287L16.4816 17.1986C16.3062 17.2862 16.1309 17.4177 15.9993 17.5492C15.0788 18.3383 14.5527 19.4781 14.5527 20.7055C14.5527 22.5028 15.6925 24.0809 17.4021 24.6508C17.8405 24.7823 18.2789 24.87 18.7172 24.87H30.6846C31.0353 24.87 31.4299 24.8261 31.7806 24.7385C33.9724 24.2563 35.5067 22.3275 35.5067 20.0479C35.5067 18.3383 34.5861 16.7602 33.0957 15.8835C33.008 15.8396 32.9642 15.7958 32.8765 15.7519V15.7081C32.8765 12.6834 30.4216 10.2285 27.3969 10.2285Z" fill="#B6C1D1"/>
</svg>
