<svg width="49" height="48" viewBox="0 0 49 48" fill="none" xmlns="http://www.w3.org/2000/svg">
<circle cx="24.7336" cy="23.9641" r="23.9641" fill="#1C6DD0" fill-opacity="0.2"/>
<path fill-rule="evenodd" clip-rule="evenodd" d="M23.9764 26.313C24.0516 26.4002 24.1088 26.5014 24.1449 26.6108C24.1809 26.7202 24.1951 26.8356 24.1865 26.9505C24.1779 27.0653 24.1468 27.1774 24.0949 27.2802C24.043 27.383 23.9714 27.4746 23.8841 27.5497L20.6635 30.3261H23.3136C23.4925 30.326 23.6672 30.3807 23.8142 30.4828C23.9611 30.5849 24.0733 30.7296 24.1357 30.8973C24.198 31.065 24.2075 31.2478 24.163 31.4211C24.1184 31.5944 24.0219 31.7499 23.8864 31.8668L18.875 36.1827C18.7878 36.2579 18.6866 36.3152 18.5773 36.3513C18.468 36.3874 18.3526 36.4017 18.2377 36.3932C18.1229 36.3848 18.0108 36.3537 17.908 36.302C17.8051 36.2502 17.7134 36.1787 17.6382 36.0915C17.563 36.0043 17.5057 35.9031 17.4696 35.7938C17.4334 35.6844 17.4192 35.5691 17.4277 35.4542C17.4361 35.3394 17.4671 35.2273 17.5189 35.1244C17.5707 35.0216 17.6422 34.9299 17.7294 34.8547L20.9511 32.0795H18.3022C18.123 32.0799 17.948 32.0253 17.8007 31.9231C17.6535 31.821 17.5411 31.6761 17.4787 31.5081C17.4163 31.3401 17.4069 31.1571 17.4517 30.9835C17.4965 30.81 17.5934 30.6544 17.7294 30.5377L22.7396 26.2218C22.8268 26.1465 22.928 26.0892 23.0373 26.0531C23.1467 26.0169 23.2621 26.0027 23.3769 26.0112C23.4918 26.0196 23.6038 26.0506 23.7067 26.1024C23.8096 26.1542 23.9012 26.2258 23.9764 26.313ZM29.4426 26.8507C29.6067 27.0151 29.699 27.2379 29.699 27.4703C29.699 27.7026 29.6067 27.9254 29.4426 28.0898L27.1046 30.4278C27.0243 30.5139 26.9275 30.583 26.82 30.6309C26.7125 30.6788 26.5964 30.7046 26.4786 30.7067C26.3609 30.7088 26.244 30.6871 26.1348 30.643C26.0257 30.5989 25.9265 30.5333 25.8432 30.45C25.76 30.3668 25.6943 30.2676 25.6503 30.1584C25.6062 30.0493 25.5845 29.9323 25.5866 29.8146C25.5887 29.6969 25.6144 29.5808 25.6623 29.4733C25.7103 29.3657 25.7793 29.2689 25.8655 29.1887L28.2034 26.8507C28.3678 26.6865 28.5907 26.5943 28.823 26.5943C29.0553 26.5943 29.2782 26.6865 29.4426 26.8507ZM31.7805 30.9421C31.9447 31.1065 32.0369 31.3294 32.0369 31.5617C32.0369 31.794 31.9447 32.0169 31.7805 32.1812L29.4426 34.5192C29.3623 34.6053 29.2655 34.6744 29.158 34.7224C29.0504 34.7703 28.9343 34.796 28.8166 34.7981C28.6989 34.8002 28.582 34.7785 28.4728 34.7344C28.3636 34.6903 28.2644 34.6247 28.1812 34.5415C28.0979 34.4582 28.0323 34.359 27.9882 34.2499C27.9441 34.1407 27.9225 34.0238 27.9245 33.906C27.9266 33.7883 27.9524 33.6722 28.0003 33.5647C28.0482 33.4571 28.1173 33.3604 28.2034 33.2801L30.5414 30.9421C30.7058 30.7779 30.9286 30.6857 31.161 30.6857C31.3933 30.6857 31.6161 30.7779 31.7805 30.9421ZM27.1046 32.1111C27.2688 32.2755 27.361 32.4983 27.361 32.7307C27.361 32.963 27.2688 33.1858 27.1046 33.3502L24.7666 35.6882C24.6864 35.7743 24.5896 35.8434 24.482 35.8913C24.3745 35.9392 24.2584 35.965 24.1407 35.9671C24.023 35.9692 23.906 35.9475 23.7969 35.9034C23.6877 35.8593 23.5885 35.7937 23.5053 35.7104C23.422 35.6272 23.3564 35.528 23.3123 35.4188C23.2682 35.3097 23.2465 35.1927 23.2486 35.075C23.2507 34.9573 23.2765 34.8412 23.3244 34.7337C23.3723 34.6261 23.4414 34.5293 23.5275 34.4491L25.8655 32.1111C26.0299 31.9469 26.2527 31.8547 26.485 31.8547C26.7174 31.8547 26.9402 31.9469 27.1046 32.1111Z" fill="#75D6FF"/>
<path d="M33.6446 30.6912C33.4564 30.1513 33.0971 29.6877 32.6213 29.3708C32.1455 29.0539 31.5792 28.901 31.0085 28.9354C31.3726 28.3927 31.5216 27.734 31.4266 27.0875C31.3316 26.441 30.9993 25.853 30.4945 25.438C29.9897 25.0231 29.3485 24.8109 28.6958 24.8429C28.0432 24.8748 27.4257 25.1486 26.9638 25.6108L25.9316 26.643C25.887 26.162 25.7108 25.7026 25.4224 25.3151C25.1339 24.9277 24.7443 24.6271 24.2963 24.4465C23.8483 24.2658 23.3592 24.2121 22.8826 24.291C22.4061 24.37 21.9605 24.5787 21.5947 24.8942L16.5856 29.2101C16.1426 29.5923 15.8504 30.0985 15.7323 30.6456C15.0829 30.1919 14.5525 29.5884 14.186 28.8861C13.8195 28.1838 13.6278 27.4036 13.627 26.6114C13.627 23.876 15.8702 21.6596 18.6372 21.6596C18.9692 21.6596 19.2942 21.6924 19.6075 21.7532C19.3329 21.0197 19.1927 20.2428 19.1936 19.4596C19.1936 15.8136 22.1839 12.8584 25.8732 12.8584C29.31 12.8584 32.1401 15.4231 32.513 18.7208C35.1268 19.6151 37.0065 22.0711 37.0065 24.9608C37.0065 27.4134 35.6529 29.5538 33.6446 30.6912Z" fill="#F5F5F5"/>
</svg>
