<svg width="49" height="48" viewBox="0 0 49 48" fill="none" xmlns="http://www.w3.org/2000/svg">
<circle cx="24.2688" cy="23.9641" r="23.9641" fill="#1C6DD0" fill-opacity="0.2"/>
<path d="M17.3018 19.2697C15.7368 21.2796 15.7631 24.8545 17.7643 26.6233C20.035 28.6333 23.2285 28.6135 25.2384 26.7636C27.6473 24.5477 27.5092 20.8566 25.3787 18.7678C23.2373 16.6658 19.4104 16.5562 17.3018 19.2697Z" fill="#FCC11A"/>
<path d="M19.8154 18.5792C19.1973 18.3053 18.52 19.0505 18.2241 19.5612C17.9282 20.0719 17.6543 21.0736 18.2833 21.3278C18.9124 21.5821 19.3639 21.1503 19.8154 20.405C20.2669 19.6598 20.5212 18.8949 19.8154 18.5792Z" fill="#FEE269"/>
<path d="M21.4258 15.7757C21.2767 16.0563 21.3271 16.2711 21.623 16.3434C21.9211 16.4136 23.7754 16.716 23.931 16.7248C24.1568 16.738 24.2423 16.5692 24.2138 16.3697C24.1853 16.1725 23.7316 13.3954 23.6899 13.139C23.6483 12.8847 23.3787 12.6283 23.1222 12.968C22.8702 13.3121 21.5375 15.5631 21.4258 15.7757ZM26.2281 17.7024C25.9366 17.7922 25.9453 17.972 26.1009 18.1977C26.2566 18.4235 27.3328 20.0674 27.4336 20.1813C27.5344 20.2953 27.7032 20.3238 27.8434 20.1528C27.9837 19.9819 29.7547 17.5029 29.884 17.3473C30.0967 17.093 29.9695 16.8234 29.6429 16.9089C29.3931 16.9747 26.4122 17.6476 26.2281 17.7024ZM15.179 25.2401C15.3763 24.9135 15.6327 24.999 15.8168 25.3102C15.944 25.5228 17.007 26.9541 17.1056 27.1097C17.2043 27.2654 17.2481 27.5634 16.9347 27.6336C16.6234 27.7037 14.0875 28.37 13.6908 28.4402C13.294 28.5103 13.0683 28.1991 13.3225 27.8593C13.4716 27.6621 15.065 25.4242 15.179 25.2401ZM14.6398 22.7743C15.0015 22.9365 15.1724 22.8773 15.2492 22.6187C15.3478 22.2789 15.6459 20.7205 15.659 20.3655C15.6678 20.1353 15.5735 19.9117 15.2207 19.9687C14.8656 20.0257 12.3165 20.3786 11.9899 20.4926C11.6107 20.6241 11.6392 21.0405 11.8913 21.172C12.1894 21.3299 14.3856 22.6603 14.6398 22.7743ZM19.0454 16.8256C19.2493 16.6634 19.1879 16.4289 19.0038 16.3018C18.8197 16.1747 16.5445 14.5286 16.2552 14.305C16.001 14.1078 15.6875 14.1779 15.773 14.6316C15.8344 14.956 16.5599 17.8054 16.6081 18.0027C16.6651 18.2284 16.8339 18.3424 17.0333 18.1999C17.2328 18.0574 18.8328 16.9944 19.0454 16.8256Z" fill="#FFA722"/>
<path d="M34.7459 27.1445C34.7459 27.1445 35.0637 20.9087 30.0159 19.6922C24.9681 18.4758 23.4974 23.3723 23.4974 23.3723C23.4974 23.3723 21.814 22.98 20.2535 24.2776C19.0282 25.2968 18.8551 26.8267 18.8551 26.8267C18.8551 26.8267 17.2441 26.5812 15.9027 27.8831C14.9317 28.8256 15.0259 30.0355 15.0259 30.0355L16.981 31.7539L36.85 31.2169L37.8955 30.0947C37.8955 30.0947 38.0621 28.8497 36.9005 27.9138C35.7388 26.9757 34.7459 27.1445 34.7459 27.1445Z" fill="#E2EBEE"/>
<path d="M19.7356 29.5664C19.7356 29.5664 20.5269 30.4607 23.0365 30.4015C25.5462 30.3423 26.2059 29.6848 26.2059 29.6848C26.2059 29.6848 27.3062 30.8399 30.4866 30.5944C33.6669 30.3489 34.5809 29.6782 34.5809 29.6782C34.5809 29.6782 35.3568 30.2327 36.3388 30.2481C37.3185 30.2634 37.8972 30.0924 37.8972 30.0924C37.8972 30.0924 37.7942 30.8727 37.4522 31.3725C37.1103 31.8722 36.5404 32.2536 35.6396 32.247C34.7365 32.2404 31.9924 32.2646 29.2065 32.2602C26.4207 32.2558 18.46 32.3018 17.283 32.2514C16.3865 32.2141 15.7355 31.6859 15.4352 31.2388C14.9552 30.5242 15.0341 29.7702 15.0341 29.7702C15.0341 29.7702 15.9372 30.4782 17.1558 30.4256C18.8216 30.3555 19.7356 29.5664 19.7356 29.5664Z" fill="#B9CED3"/>
</svg>
